<?xml version="1.0" ?><svg data-name="Layer 2" id="Layer_2" viewBox="0 0 24 24" xmlns="http://www.w3.org/2000/svg"><defs><style>.cls-1{fill:#333;}</style></defs><path class="cls-1" d="M10,22H6a1,1,0,0,1-1-1V3A1,1,0,0,1,6,2H19a1,1,0,0,1,1,1V7a1,1,0,0,1-1,1H9A1,1,0,0,1,9,6h9V4H7V20H9V10a1,1,0,0,1,2,0V21A1,1,0,0,1,10,22Z"/><path class="cls-1" d="M17,13a1,1,0,0,1-1-1V7a1,1,0,0,1,2,0v5A1,1,0,0,1,17,13Z"/><path class="cls-1" d="M17,17a3,3,0,1,1,3-3A3,3,0,0,1,17,17Zm0-4a1,1,0,1,0,1,1A1,1,0,0,0,17,13Z"/></svg>