<svg width="25" height="24" viewBox="0 0 25 24" fill="none" xmlns="http://www.w3.org/2000/svg">
<path d="M11.0968 0.0856765C5.33516 0.70459 0.700772 5.28455 0.074503 10.8548C-0.551766 16.6725 2.83009 21.8714 7.96549 23.8519C8.34125 23.9757 8.71701 23.7282 8.71701 23.233V21.2525C8.71701 21.2525 8.216 21.3763 7.58973 21.3763C5.83618 21.3763 5.08465 19.8909 4.9594 19.0244C4.83415 18.5293 4.58364 18.1579 4.20788 17.7866C3.83212 17.6628 3.70686 17.6628 3.70686 17.539C3.70686 17.2915 4.08262 17.2915 4.20788 17.2915C4.9594 17.2915 5.58567 18.1579 5.83618 18.5293C6.46244 19.5195 7.21397 19.7671 7.58973 19.7671C8.09074 19.7671 8.4665 19.6433 8.71701 19.5195C8.84227 18.6531 9.21803 17.7866 9.96955 17.2915C7.08871 16.6725 4.9594 15.0634 4.9594 12.3402C4.9594 10.9785 5.58567 9.61694 6.46244 8.62668C6.33719 8.37911 6.21194 7.7602 6.21194 6.89372C6.21194 6.39859 6.21194 5.65589 6.5877 4.9132C6.5877 4.9132 8.34125 4.9132 10.0948 6.52237C10.7211 6.27481 11.5978 6.15102 12.4746 6.15102C13.3514 6.15102 14.2282 6.27481 14.9797 6.52237C16.608 4.9132 18.4868 4.9132 18.4868 4.9132C18.7373 5.65589 18.7373 6.39859 18.7373 6.89372C18.7373 7.88398 18.6121 8.37911 18.4868 8.62668C19.3636 9.61694 19.9898 10.8548 19.9898 12.3402C19.9898 15.0634 17.8605 16.6725 14.9797 17.2915C15.7312 17.9104 16.2322 19.0244 16.2322 20.1385V23.3568C16.2322 23.7282 16.608 24.0995 17.109 23.9757C21.7434 22.119 25 17.6628 25 12.4639C25 5.03698 18.6121 -0.780802 11.0968 0.0856765Z" fill="#EFEFEF"/>
</svg>
